<svg id="Layer_1" enable-background="new 0 0 511.967 511.967" height="512" viewBox="0 0 511.967 511.967" width="512" xmlns="http://www.w3.org/2000/svg"><path d="m347.293 81.623c0-55.701-202-55.702-202 0 0 55.712 202 55.716 202 0z"/><path d="m395.904 223.979c-3.651-13.12-12.979-25.42-27.3-35.943v-9.379c19.036-13.956 29.07-30.687 29.07-48.594v-48.44c0-74.168-163.165-107.056-256.412-59.174-29.882 15.344-46.338 36.358-46.338 59.174v28.916c-19.03 13.952-29.061 30.68-29.061 48.584v48.439c0 17.904 10.023 34.63 29.061 48.593 0 30.753-1.556 38.957 6.824 53.61-4.525 7.921-6.824 16.209-6.824 24.707v95.91c0 22.815 16.456 43.83 46.338 59.174 92.813 47.659 256.412 15.284 256.412-59.174v-36.668c30.849-15.256 48.43-37.004 48.43-60.211v-48.44c0-23.672-18.24-45.784-50.2-61.084zm-45.333 120.646c24.259-12.271 47.103-32.597 47.103-59.563v-42.113c60.856 34.881 30.956 83.975-47.103 101.676zm-237.82-20.613c8.258 8.326 19.215 15.835 32.356 22.129 5.41 19.386 23.167 36.399 48.986 48.68-54.975-11.52-91.999-40.289-81.342-70.809zm133.542-21.76c-39.579 0-76.571-8.815-101.877-22.927 96.079 27.926 222.168-5.981 224.155-70.304 43.631 44.227-27.762 93.231-122.278 93.231zm0-286.25c73.384 0 135.381 30.051 135.381 65.62 0 35.575-61.997 65.63-135.381 65.63-73.378 0-135.369-30.055-135.369-65.63 0-35.569 61.991-65.62 135.369-65.62zm-151.337 115.499c1.951 64.052 127.662 98.371 224.164 70.324-25.308 14.112-62.304 22.927-101.887 22.927-94.671 0-165.947-49.156-122.277-93.251z"/></svg>