<?xml version="1.0" encoding="iso-8859-1"?>
<!-- Generator: Adobe Illustrator 19.0.0, SVG Export Plug-In . SVG Version: 6.00 Build 0)  -->
<svg xmlns="http://www.w3.org/2000/svg" xmlns:xlink="http://www.w3.org/1999/xlink" version="1.1" id="Layer_1" x="0px" y="0px" viewBox="0 0 512 512" style="enable-background:new 0 0 512 512;" xml:space="preserve" width="512" height="512">
<g id="XMLID_1000_">
	<g id="XMLID_144_">
		<path id="XMLID_149_" d="M176,189.5c-5.523,0-10,4.478-10,10v20.667c0,5.522,4.477,10,10,10s10-4.478,10-10V199.5    C186,193.978,181.523,189.5,176,189.5z"/>
		<path id="XMLID_666_" d="M216,189.5c-5.523,0-10,4.478-10,10v20.667c0,5.522,4.477,10,10,10s10-4.478,10-10V199.5    C226,193.978,221.523,189.5,216,189.5z"/>
		<path id="XMLID_1082_" d="M256,189.5c-5.523,0-10,4.478-10,10v20.667c0,5.522,4.477,10,10,10s10-4.478,10-10V199.5    C266,193.978,261.523,189.5,256,189.5z"/>
		<path id="XMLID_1380_" d="M296,189.5c-5.523,0-10,4.478-10,10v20.667c0,5.522,4.477,10,10,10s10-4.478,10-10V199.5    C306,193.978,301.523,189.5,296,189.5z"/>
		<path id="XMLID_1437_" d="M336,189.5c-5.523,0-10,4.478-10,10v20.667c0,5.522,4.477,10,10,10s10-4.478,10-10V199.5    C346,193.978,341.523,189.5,336,189.5z"/>
		<path id="XMLID_1438_" d="M116,452.166c-2.63,0-5.21,1.07-7.07,2.931c-1.86,1.859-2.93,4.439-2.93,7.069    c0,2.631,1.07,5.21,2.93,7.07c1.86,1.86,4.44,2.93,7.07,2.93c2.63,0,5.21-1.069,7.07-2.93s2.93-4.439,2.93-7.07    c0-2.63-1.07-5.21-2.93-7.069C121.21,453.236,118.63,452.166,116,452.166z"/>
		<path id="XMLID_1439_" d="M116,369.5c-5.523,0-10,4.478-10,10v43.316c0,5.522,4.477,10,10,10s10-4.478,10-10V379.5    C126,373.978,121.523,369.5,116,369.5z"/>
		<path id="XMLID_1455_" d="M172,369.5c-5.523,0-10,4.478-10,10v82.667c0,5.522,4.477,10,10,10s10-4.478,10-10V379.5    C182,373.978,177.523,369.5,172,369.5z"/>
		<path id="XMLID_1456_" d="M228,369.5c-5.523,0-10,4.478-10,10v82.667c0,5.522,4.477,10,10,10s10-4.478,10-10V379.5    C238,373.978,233.523,369.5,228,369.5z"/>
		<path id="XMLID_1471_" d="M284,369.5c-5.523,0-10,4.478-10,10v82.667c0,5.522,4.477,10,10,10s10-4.478,10-10V379.5    C294,373.978,289.523,369.5,284,369.5z"/>
		<path id="XMLID_1480_" d="M340,369.5c-5.523,0-10,4.478-10,10v82.667c0,5.522,4.477,10,10,10s10-4.478,10-10V379.5    C350,373.978,345.523,369.5,340,369.5z"/>
		<path id="XMLID_1584_" d="M396,369.496c-2.63,0-5.21,1.07-7.07,2.931c-1.86,1.87-2.93,4.439-2.93,7.069    c0,2.641,1.07,5.21,2.93,7.07c1.86,1.87,4.44,2.93,7.07,2.93c2.63,0,5.21-1.06,7.07-2.93c1.86-1.86,2.93-4.43,2.93-7.07    c0-2.63-1.07-5.199-2.93-7.069C401.21,370.566,398.63,369.496,396,369.496z"/>
		<path id="XMLID_1585_" d="M396,409.5c-5.523,0-10,4.478-10,10v42.667c0,5.522,4.477,10,10,10s10-4.478,10-10V419.5    C406,413.978,401.523,409.5,396,409.5z"/>
		<path id="XMLID_1598_" d="M156,273c-5.523,0-10,4.478-10,10v20.667c0,5.522,4.477,10,10,10s10-4.478,10-10V283    C166,277.478,161.523,273,156,273z"/>
		<path id="XMLID_1599_" d="M196,273c-5.523,0-10,4.478-10,10v20.667c0,5.522,4.477,10,10,10s10-4.478,10-10V283    C206,277.478,201.523,273,196,273z"/>
		<path id="XMLID_1600_" d="M236,273c-5.523,0-10,4.478-10,10v20.667c0,5.522,4.477,10,10,10s10-4.478,10-10V283    C246,277.478,241.523,273,236,273z"/>
		<path id="XMLID_1601_" d="M276,273c-5.523,0-10,4.478-10,10v20.667c0,5.522,4.477,10,10,10s10-4.478,10-10V283    C286,277.478,281.523,273,276,273z"/>
		<path id="XMLID_1602_" d="M316,273c-5.523,0-10,4.478-10,10v20.667c0,5.522,4.477,10,10,10s10-4.478,10-10V283    C326,277.478,321.523,273,316,273z"/>
		<path id="XMLID_1604_" d="M356,273c-5.523,0-10,4.478-10,10v20.667c0,5.522,4.477,10,10,10s10-4.478,10-10V283    C366,277.478,361.523,273,356,273z"/>
		<path id="XMLID_1608_" d="M502,355.833h-40v-22c0-5.522-4.477-10-10-10h-46v-68h7c5.523,0,10-4.478,10-10s-4.477-10-10-10h-28    v-52.051c5.053-0.502,9-4.765,9-9.949c0-5.522-4.477-10-10-10h-9h-15.667v-8.666c0-53.605-41.03-97.802-93.333-102.849V10.167    c0-5.522-4.477-10-10-10s-10,4.478-10,10v42.151c-52.304,5.047-93.333,49.244-93.333,102.849v8.666H137h-9    c-5.523,0-10,4.478-10,10c0,5.185,3.947,9.448,9,9.949v52.051H99c-5.523,0-10,4.478-10,10s4.477,10,10,10h7v68H60    c-5.523,0-10,4.478-10,10v22H10c-5.523,0-10,4.478-10,10v136c0,5.522,4.477,10,10,10h492c5.523,0,10-4.478,10-10v-136    C512,360.311,507.523,355.833,502,355.833z M172.667,155.167c0-45.95,37.383-83.334,83.333-83.334s83.333,37.384,83.333,83.334    v8.666H172.667V155.167z M147,183.833h15.667h186.667H365v52H147V183.833z M126,255.833h260v68H126V255.833z M20,375.833h30v116    H20V375.833z M70,365.833v-22h372v22v126H70V365.833z M492,491.833h-30v-116h30V491.833z"/>
	</g>
</g>















</svg>
